<?xml version="1.0" encoding="utf-8" standalone="no"?>
<!DOCTYPE svg PUBLIC "-//W3C//DTD SVG 1.1//EN"
  "http://www.w3.org/Graphics/SVG/1.1/DTD/svg11.dtd">
<svg xmlns:xlink="http://www.w3.org/1999/xlink" width="475.2pt" height="475.2pt" viewBox="0 0 475.2 475.2" xmlns="http://www.w3.org/2000/svg" version="1.1">
 <metadata>
  <rdf:RDF xmlns:dc="http://purl.org/dc/elements/1.1/" xmlns:cc="http://creativecommons.org/ns#" xmlns:rdf="http://www.w3.org/1999/02/22-rdf-syntax-ns#">
   <cc:Work>
    <dc:type rdf:resource="http://purl.org/dc/dcmitype/StillImage"/>
    <dc:date>1970-01-01T00:00:00+00:00</dc:date>
    <dc:format>image/svg+xml</dc:format>
    <dc:creator>
     <cc:Agent>
      <dc:title>Matplotlib v3.10.7, https://matplotlib.org/</dc:title>
     </cc:Agent>
    </dc:creator>
   </cc:Work>
  </rdf:RDF>
 </metadata>
 <defs>
  <style type="text/css">*{stroke-linejoin: round; stroke-linecap: butt}</style>
 </defs>
 <g id="figure_1">
  <g id="patch_1">
   <path d="M 0 475.2 
L 475.2 475.2 
L 475.2 0 
L 0 0 
z
" style="fill: #ffffff"/>
  </g>
  <g id="axes_1">
   <g id="patch_2">
    <path d="M 39.6 435.6 
L 435.6 435.6 
L 435.6 39.6 
L 39.6 39.6 
z
" clip-path="url(#pd8dd0df649)" style="fill: #ffffff; stroke: #ffffff; stroke-linejoin: miter"/>
   </g>
   <g id="patch_3">
    <path d="M 72.6 66.6 
Q 72.6 300.6 72.6 300.6 
" clip-path="url(#pd8dd0df649)" style="fill: none; stroke: #000000; stroke-linejoin: miter"/>
   </g>
   <g id="patch_4">
    <path d="M 336.6 39.6 
Q 336.6 156.6 336.6 156.6 
" clip-path="url(#pd8dd0df649)" style="fill: none; stroke: #000000; stroke-linejoin: miter"/>
   </g>
   <g id="patch_5">
    <path d="M 138.6 102.6 
Q 138.6 219.6 138.6 219.6 
" clip-path="url(#pd8dd0df649)" style="fill: none; stroke: #000000; stroke-linejoin: miter"/>
   </g>
   <g id="patch_6">
    <path d="M 204.6 138.6 
Q 204.6 183.6 204.6 183.6 
" clip-path="url(#pd8dd0df649)" style="fill: none; stroke: #000000; stroke-linejoin: miter"/>
   </g>
   <g id="patch_7">
    <path d="M 336.6 165.6 
Q 270.6 165.6 270.6 174.6 
" clip-path="url(#pd8dd0df649)" style="fill: none; stroke: #000000; stroke-linejoin: miter"/>
   </g>
   <g id="patch_8">
    <path d="M 336.6 165.6 
Q 336.6 165.6 336.6 174.6 
" clip-path="url(#pd8dd0df649)" style="fill: none; stroke: #000000; stroke-linejoin: miter"/>
   </g>
   <g id="patch_9">
    <path d="M 336.6 165.6 
Q 402.6 165.6 402.6 174.6 
" clip-path="url(#pd8dd0df649)" style="fill: none; stroke: #000000; stroke-linejoin: miter"/>
   </g>
   <g id="patch_10">
    <path d="M 336.6 156.6 
Q 336.6 165.6 336.6 165.6 
" clip-path="url(#pd8dd0df649)" style="fill: none; stroke: #000000; stroke-linejoin: miter"/>
   </g>
   <g id="patch_11">
    <path d="M 270.6 174.6 
Q 270.6 183.6 270.6 183.6 
" clip-path="url(#pd8dd0df649)" style="fill: none; stroke: #000000; stroke-linejoin: miter"/>
   </g>
   <g id="patch_12">
    <path d="M 336.6 174.6 
Q 336.6 255.6 336.6 255.6 
" clip-path="url(#pd8dd0df649)" style="fill: none; stroke: #000000; stroke-linejoin: miter"/>
   </g>
   <g id="patch_13">
    <path d="M 402.6 174.6 
Q 402.6 372.6 402.6 372.6 
" clip-path="url(#pd8dd0df649)" style="fill: none; stroke: #000000; stroke-linejoin: miter"/>
   </g>
   <g id="patch_14">
    <path d="M 237.6 201.6 
Q 204.6 201.6 204.6 219.6 
" clip-path="url(#pd8dd0df649)" style="fill: none; stroke: #000000; stroke-linejoin: miter"/>
   </g>
   <g id="patch_15">
    <path d="M 237.6 201.6 
Q 270.6 201.6 270.6 219.6 
" clip-path="url(#pd8dd0df649)" style="fill: none; stroke: #000000; stroke-linejoin: miter"/>
   </g>
   <g id="patch_16">
    <path d="M 204.6 183.6 
Q 204.6 201.6 237.6 201.6 
" clip-path="url(#pd8dd0df649)" style="fill: none; stroke: #000000; stroke-linejoin: miter"/>
   </g>
   <g id="patch_17">
    <path d="M 270.6 183.6 
Q 270.6 201.6 237.6 201.6 
" clip-path="url(#pd8dd0df649)" style="fill: none; stroke: #000000; stroke-linejoin: miter"/>
   </g>
   <g id="patch_18">
    <path d="M 270.6 219.6 
Q 270.6 255.6 270.6 255.6 
" clip-path="url(#pd8dd0df649)" style="fill: none; stroke: #000000; stroke-linejoin: miter"/>
   </g>
   <g id="patch_19">
    <path d="M 171.6 237.6 
Q 138.6 237.6 138.6 255.6 
" clip-path="url(#pd8dd0df649)" style="fill: none; stroke: #000000; stroke-linejoin: miter"/>
   </g>
   <g id="patch_20">
    <path d="M 171.6 237.6 
Q 204.6 237.6 204.6 255.6 
" clip-path="url(#pd8dd0df649)" style="fill: none; stroke: #000000; stroke-linejoin: miter"/>
   </g>
   <g id="patch_21">
    <path d="M 138.6 219.6 
Q 138.6 237.6 171.6 237.6 
" clip-path="url(#pd8dd0df649)" style="fill: none; stroke: #000000; stroke-linejoin: miter"/>
   </g>
   <g id="patch_22">
    <path d="M 204.6 219.6 
Q 204.6 237.6 171.6 237.6 
" clip-path="url(#pd8dd0df649)" style="fill: none; stroke: #000000; stroke-linejoin: miter"/>
   </g>
   <g id="patch_23">
    <path d="M 138.6 255.6 
Q 138.6 300.6 138.6 300.6 
" clip-path="url(#pd8dd0df649)" style="fill: none; stroke: #000000; stroke-linejoin: miter"/>
   </g>
   <g id="patch_24">
    <path d="M 204.6 255.6 
Q 204.6 336.6 204.6 336.6 
" clip-path="url(#pd8dd0df649)" style="fill: none; stroke: #000000; stroke-linejoin: miter"/>
   </g>
   <g id="patch_25">
    <path d="M 303.6 273.6 
Q 270.6 273.6 270.6 291.6 
" clip-path="url(#pd8dd0df649)" style="fill: none; stroke: #000000; stroke-linejoin: miter"/>
   </g>
   <g id="patch_26">
    <path d="M 303.6 273.6 
Q 336.6 273.6 336.6 291.6 
" clip-path="url(#pd8dd0df649)" style="fill: none; stroke: #000000; stroke-linejoin: miter"/>
   </g>
   <g id="patch_27">
    <path d="M 270.6 255.6 
Q 270.6 273.6 303.6 273.6 
" clip-path="url(#pd8dd0df649)" style="fill: none; stroke: #000000; stroke-linejoin: miter"/>
   </g>
   <g id="patch_28">
    <path d="M 336.6 255.6 
Q 336.6 273.6 303.6 273.6 
" clip-path="url(#pd8dd0df649)" style="fill: none; stroke: #000000; stroke-linejoin: miter"/>
   </g>
   <g id="patch_29">
    <path d="M 270.6 291.6 
Q 270.6 336.6 270.6 336.6 
" clip-path="url(#pd8dd0df649)" style="fill: none; stroke: #000000; stroke-linejoin: miter"/>
   </g>
   <g id="patch_30">
    <path d="M 336.6 291.6 
Q 336.6 372.6 336.6 372.6 
" clip-path="url(#pd8dd0df649)" style="fill: none; stroke: #000000; stroke-linejoin: miter"/>
   </g>
   <g id="patch_31">
    <path d="M 105.6 318.6 
Q 105.6 408.6 105.6 408.6 
" clip-path="url(#pd8dd0df649)" style="fill: none; stroke: #000000; stroke-linejoin: miter"/>
   </g>
   <g id="patch_32">
    <path d="M 237.6 354.6 
Q 237.6 408.6 237.6 408.6 
" clip-path="url(#pd8dd0df649)" style="fill: none; stroke: #000000; stroke-linejoin: miter"/>
   </g>
   <g id="patch_33">
    <path d="M 369.6 390.6 
Q 369.6 408.6 369.6 408.6 
" clip-path="url(#pd8dd0df649)" style="fill: none; stroke: #000000; stroke-linejoin: miter"/>
   </g>
   <g id="patch_34">
    <path d="M 237.6 417.6 
Q 237.6 417.6 237.6 426.6 
" clip-path="url(#pd8dd0df649)" style="fill: none; stroke: #000000; stroke-linejoin: miter"/>
   </g>
   <g id="patch_35">
    <path d="M 105.6 408.6 
Q 105.6 417.6 237.6 417.6 
" clip-path="url(#pd8dd0df649)" style="fill: none; stroke: #000000; stroke-linejoin: miter"/>
   </g>
   <g id="patch_36">
    <path d="M 237.6 408.6 
Q 237.6 417.6 237.6 417.6 
" clip-path="url(#pd8dd0df649)" style="fill: none; stroke: #000000; stroke-linejoin: miter"/>
   </g>
   <g id="patch_37">
    <path d="M 369.6 408.6 
Q 369.6 417.6 237.6 417.6 
" clip-path="url(#pd8dd0df649)" style="fill: none; stroke: #000000; stroke-linejoin: miter"/>
   </g>
   <g id="patch_38">
    <path d="M 237.6 426.6 
Q 237.6 435.6 237.6 435.6 
" clip-path="url(#pd8dd0df649)" style="fill: none; stroke: #000000; stroke-linejoin: miter"/>
   </g>
   <g id="patch_39">
    <path d="M 56.1 66.6 
L 56.1 48.6 
L 89.1 48.6 
L 89.1 66.6 
z
" clip-path="url(#pd8dd0df649)" style="fill: #ffffff; stroke: #000000; stroke-linejoin: miter"/>
   </g>
   <g id="patch_40">
    <path d="M 122.1 102.6 
L 122.1 84.6 
L 155.1 84.6 
L 155.1 102.6 
z
" clip-path="url(#pd8dd0df649)" style="fill: #ffffff; stroke: #000000; stroke-linejoin: miter"/>
   </g>
   <g id="patch_41">
    <path d="M 188.1 138.6 
L 188.1 120.6 
L 221.1 120.6 
L 221.1 138.6 
z
" clip-path="url(#pd8dd0df649)" style="fill: #ffffff; stroke: #000000; stroke-linejoin: miter"/>
   </g>
   <g id="patch_42">
    <path d="M 56.1 318.6 
L 56.1 300.6 
L 155.1 300.6 
L 155.1 318.6 
z
" clip-path="url(#pd8dd0df649)" style="fill: #ffffff; stroke: #000000; stroke-linejoin: miter"/>
   </g>
   <g id="patch_43">
    <path d="M 188.1 354.6 
L 188.1 336.6 
L 287.1 336.6 
L 287.1 354.6 
z
" clip-path="url(#pd8dd0df649)" style="fill: #ffffff; stroke: #000000; stroke-linejoin: miter"/>
   </g>
   <g id="patch_44">
    <path d="M 320.1 390.6 
L 320.1 372.6 
L 419.1 372.6 
L 419.1 390.6 
z
" clip-path="url(#pd8dd0df649)" style="fill: #ffffff; stroke: #000000; stroke-linejoin: miter"/>
   </g>
   <g id="PathCollection_1">
    <defs>
     <path id="C0_0_d5e56978d7" d="M 0 4.759202 
C 1.262155 4.759202 2.472785 4.257742 3.365264 3.365264 
C 4.257742 2.472785 4.759202 1.262155 4.759202 -0 
C 4.759202 -1.262155 4.257742 -2.472785 3.365264 -3.365264 
C 2.472785 -4.257742 1.262155 -4.759202 0 -4.759202 
C -1.262155 -4.759202 -2.472785 -4.257742 -3.365264 -3.365264 
C -4.257742 -2.472785 -4.759202 -1.262155 -4.759202 0 
C -4.759202 1.262155 -4.257742 2.472785 -3.365264 3.365264 
C -2.472785 4.257742 -1.262155 4.759202 0 4.759202 
z
"/>
    </defs>
    <g clip-path="url(#pd8dd0df649)">
     <use xlink:href="#C0_0_d5e56978d7" x="237.6" y="417.6" style="stroke: #000000"/>
    </g>
    <g clip-path="url(#pd8dd0df649)">
     <use xlink:href="#C0_0_d5e56978d7" x="336.6" y="165.6" style="stroke: #000000"/>
    </g>
   </g>
   <g id="text_1">
    <!-- P -->
    <g transform="translate(76.725 77.968125) scale(0.12 -0.12)">
     <defs>
      <path id="DejaVuSans-50" d="M 1259 4147 
L 1259 2394 
L 2053 2394 
Q 2494 2394 2734 2622 
Q 2975 2850 2975 3272 
Q 2975 3691 2734 3919 
Q 2494 4147 2053 4147 
L 1259 4147 
z
M 628 4666 
L 2053 4666 
Q 2838 4666 3239 4311 
Q 3641 3956 3641 3272 
Q 3641 2581 3239 2228 
Q 2838 1875 2053 1875 
L 1259 1875 
L 1259 0 
L 628 0 
L 628 4666 
z
" transform="scale(0.015625)"/>
     </defs>
     <use xlink:href="#DejaVuSans-50"/>
    </g>
   </g>
   <g id="text_2">
    <!-- IO -->
    <g transform="translate(340.725 50.968125) scale(0.12 -0.12)">
     <defs>
      <path id="DejaVuSans-49" d="M 628 4666 
L 1259 4666 
L 1259 0 
L 628 0 
L 628 4666 
z
" transform="scale(0.015625)"/>
      <path id="DejaVuSans-4f" d="M 2522 4238 
Q 1834 4238 1429 3725 
Q 1025 3213 1025 2328 
Q 1025 1447 1429 934 
Q 1834 422 2522 422 
Q 3209 422 3611 934 
Q 4013 1447 4013 2328 
Q 4013 3213 3611 3725 
Q 3209 4238 2522 4238 
z
M 2522 4750 
Q 3503 4750 4090 4092 
Q 4678 3434 4678 2328 
Q 4678 1225 4090 567 
Q 3503 -91 2522 -91 
Q 1538 -91 948 565 
Q 359 1222 359 2328 
Q 359 3434 948 4092 
Q 1538 4750 2522 4750 
z
" transform="scale(0.015625)"/>
     </defs>
     <use xlink:href="#DejaVuSans-49"/>
     <use xlink:href="#DejaVuSans-4f" transform="translate(29.492188 0)"/>
    </g>
   </g>
   <g id="text_3">
    <!-- P -->
    <g transform="translate(142.725 113.968125) scale(0.12 -0.12)">
     <use xlink:href="#DejaVuSans-50"/>
    </g>
   </g>
   <g id="text_4">
    <!-- P -->
    <g transform="translate(208.725 149.968125) scale(0.12 -0.12)">
     <use xlink:href="#DejaVuSans-50"/>
    </g>
   </g>
   <g id="text_5">
    <!-- IO -->
    <g transform="translate(274.725 185.968125) scale(0.12 -0.12)">
     <use xlink:href="#DejaVuSans-49"/>
     <use xlink:href="#DejaVuSans-4f" transform="translate(29.492188 0)"/>
    </g>
   </g>
   <g id="text_6">
    <!-- IO -->
    <g transform="translate(340.725 185.968125) scale(0.12 -0.12)">
     <use xlink:href="#DejaVuSans-49"/>
     <use xlink:href="#DejaVuSans-4f" transform="translate(29.492188 0)"/>
    </g>
   </g>
   <g id="text_7">
    <!-- IO -->
    <g transform="translate(406.725 185.968125) scale(0.12 -0.12)">
     <use xlink:href="#DejaVuSans-49"/>
     <use xlink:href="#DejaVuSans-4f" transform="translate(29.492188 0)"/>
    </g>
   </g>
   <g id="text_8">
    <!-- IO -->
    <g transform="translate(208.725 221.968125) scale(0.12 -0.12)">
     <use xlink:href="#DejaVuSans-49"/>
     <use xlink:href="#DejaVuSans-4f" transform="translate(29.492188 0)"/>
    </g>
   </g>
   <g id="text_9">
    <!-- P -->
    <g transform="translate(274.725 221.968125) scale(0.12 -0.12)">
     <use xlink:href="#DejaVuSans-50"/>
    </g>
   </g>
   <g id="text_10">
    <!-- IO -->
    <g transform="translate(142.725 257.968125) scale(0.12 -0.12)">
     <use xlink:href="#DejaVuSans-49"/>
     <use xlink:href="#DejaVuSans-4f" transform="translate(29.492188 0)"/>
    </g>
   </g>
   <g id="text_11">
    <!-- P -->
    <g transform="translate(208.725 257.968125) scale(0.12 -0.12)">
     <use xlink:href="#DejaVuSans-50"/>
    </g>
   </g>
   <g id="text_12">
    <!-- IO -->
    <g transform="translate(274.725 293.968125) scale(0.12 -0.12)">
     <use xlink:href="#DejaVuSans-49"/>
     <use xlink:href="#DejaVuSans-4f" transform="translate(29.492188 0)"/>
    </g>
   </g>
   <g id="text_13">
    <!-- P -->
    <g transform="translate(340.725 293.968125) scale(0.12 -0.12)">
     <use xlink:href="#DejaVuSans-50"/>
    </g>
   </g>
   <g id="text_14">
    <!-- IO -->
    <g transform="translate(109.725 329.968125) scale(0.12 -0.12)">
     <use xlink:href="#DejaVuSans-49"/>
     <use xlink:href="#DejaVuSans-4f" transform="translate(29.492188 0)"/>
    </g>
   </g>
   <g id="text_15">
    <!-- IO -->
    <g transform="translate(241.725 365.968125) scale(0.12 -0.12)">
     <use xlink:href="#DejaVuSans-49"/>
     <use xlink:href="#DejaVuSans-4f" transform="translate(29.492188 0)"/>
    </g>
   </g>
   <g id="text_16">
    <!-- IO -->
    <g transform="translate(373.725 401.968125) scale(0.12 -0.12)">
     <use xlink:href="#DejaVuSans-49"/>
     <use xlink:href="#DejaVuSans-4f" transform="translate(29.492188 0)"/>
    </g>
   </g>
   <g id="text_17">
    <!-- IO -->
    <g transform="translate(241.725 437.968125) scale(0.12 -0.12)">
     <use xlink:href="#DejaVuSans-49"/>
     <use xlink:href="#DejaVuSans-4f" transform="translate(29.492188 0)"/>
    </g>
   </g>
   <g id="text_18">
    <!-- cat -->
    <g transform="translate(61.717187 61.463125) scale(0.14 -0.14)">
     <defs>
      <path id="DejaVuSans-63" d="M 3122 3366 
L 3122 2828 
Q 2878 2963 2633 3030 
Q 2388 3097 2138 3097 
Q 1578 3097 1268 2742 
Q 959 2388 959 1747 
Q 959 1106 1268 751 
Q 1578 397 2138 397 
Q 2388 397 2633 464 
Q 2878 531 3122 666 
L 3122 134 
Q 2881 22 2623 -34 
Q 2366 -91 2075 -91 
Q 1284 -91 818 406 
Q 353 903 353 1747 
Q 353 2603 823 3093 
Q 1294 3584 2113 3584 
Q 2378 3584 2631 3529 
Q 2884 3475 3122 3366 
z
" transform="scale(0.015625)"/>
      <path id="DejaVuSans-61" d="M 2194 1759 
Q 1497 1759 1228 1600 
Q 959 1441 959 1056 
Q 959 750 1161 570 
Q 1363 391 1709 391 
Q 2188 391 2477 730 
Q 2766 1069 2766 1631 
L 2766 1759 
L 2194 1759 
z
M 3341 1997 
L 3341 0 
L 2766 0 
L 2766 531 
Q 2569 213 2275 61 
Q 1981 -91 1556 -91 
Q 1019 -91 701 211 
Q 384 513 384 1019 
Q 384 1609 779 1909 
Q 1175 2209 1959 2209 
L 2766 2209 
L 2766 2266 
Q 2766 2663 2505 2880 
Q 2244 3097 1772 3097 
Q 1472 3097 1187 3025 
Q 903 2953 641 2809 
L 641 3341 
Q 956 3463 1253 3523 
Q 1550 3584 1831 3584 
Q 2591 3584 2966 3190 
Q 3341 2797 3341 1997 
z
" transform="scale(0.015625)"/>
      <path id="DejaVuSans-74" d="M 1172 4494 
L 1172 3500 
L 2356 3500 
L 2356 3053 
L 1172 3053 
L 1172 1153 
Q 1172 725 1289 603 
Q 1406 481 1766 481 
L 2356 481 
L 2356 0 
L 1766 0 
Q 1100 0 847 248 
Q 594 497 594 1153 
L 594 3053 
L 172 3053 
L 172 3500 
L 594 3500 
L 594 4494 
L 1172 4494 
z
" transform="scale(0.015625)"/>
     </defs>
     <use xlink:href="#DejaVuSans-63"/>
     <use xlink:href="#DejaVuSans-61" transform="translate(54.980469 0)"/>
     <use xlink:href="#DejaVuSans-74" transform="translate(116.259766 0)"/>
    </g>
   </g>
   <g id="text_19">
    <!-- grep -c x -->
    <g transform="translate(107.717969 97.463125) scale(0.14 -0.14)">
     <defs>
      <path id="DejaVuSans-67" d="M 2906 1791 
Q 2906 2416 2648 2759 
Q 2391 3103 1925 3103 
Q 1463 3103 1205 2759 
Q 947 2416 947 1791 
Q 947 1169 1205 825 
Q 1463 481 1925 481 
Q 2391 481 2648 825 
Q 2906 1169 2906 1791 
z
M 3481 434 
Q 3481 -459 3084 -895 
Q 2688 -1331 1869 -1331 
Q 1566 -1331 1297 -1286 
Q 1028 -1241 775 -1147 
L 775 -588 
Q 1028 -725 1275 -790 
Q 1522 -856 1778 -856 
Q 2344 -856 2625 -561 
Q 2906 -266 2906 331 
L 2906 616 
Q 2728 306 2450 153 
Q 2172 0 1784 0 
Q 1141 0 747 490 
Q 353 981 353 1791 
Q 353 2603 747 3093 
Q 1141 3584 1784 3584 
Q 2172 3584 2450 3431 
Q 2728 3278 2906 2969 
L 2906 3500 
L 3481 3500 
L 3481 434 
z
" transform="scale(0.015625)"/>
      <path id="DejaVuSans-72" d="M 2631 2963 
Q 2534 3019 2420 3045 
Q 2306 3072 2169 3072 
Q 1681 3072 1420 2755 
Q 1159 2438 1159 1844 
L 1159 0 
L 581 0 
L 581 3500 
L 1159 3500 
L 1159 2956 
Q 1341 3275 1631 3429 
Q 1922 3584 2338 3584 
Q 2397 3584 2469 3576 
Q 2541 3569 2628 3553 
L 2631 2963 
z
" transform="scale(0.015625)"/>
      <path id="DejaVuSans-65" d="M 3597 1894 
L 3597 1613 
L 953 1613 
Q 991 1019 1311 708 
Q 1631 397 2203 397 
Q 2534 397 2845 478 
Q 3156 559 3463 722 
L 3463 178 
Q 3153 47 2828 -22 
Q 2503 -91 2169 -91 
Q 1331 -91 842 396 
Q 353 884 353 1716 
Q 353 2575 817 3079 
Q 1281 3584 2069 3584 
Q 2775 3584 3186 3129 
Q 3597 2675 3597 1894 
z
M 3022 2063 
Q 3016 2534 2758 2815 
Q 2500 3097 2075 3097 
Q 1594 3097 1305 2825 
Q 1016 2553 972 2059 
L 3022 2063 
z
" transform="scale(0.015625)"/>
      <path id="DejaVuSans-70" d="M 1159 525 
L 1159 -1331 
L 581 -1331 
L 581 3500 
L 1159 3500 
L 1159 2969 
Q 1341 3281 1617 3432 
Q 1894 3584 2278 3584 
Q 2916 3584 3314 3078 
Q 3713 2572 3713 1747 
Q 3713 922 3314 415 
Q 2916 -91 2278 -91 
Q 1894 -91 1617 61 
Q 1341 213 1159 525 
z
M 3116 1747 
Q 3116 2381 2855 2742 
Q 2594 3103 2138 3103 
Q 1681 3103 1420 2742 
Q 1159 2381 1159 1747 
Q 1159 1113 1420 752 
Q 1681 391 2138 391 
Q 2594 391 2855 752 
Q 3116 1113 3116 1747 
z
" transform="scale(0.015625)"/>
      <path id="DejaVuSans-20" transform="scale(0.015625)"/>
      <path id="DejaVuSans-2d" d="M 313 2009 
L 1997 2009 
L 1997 1497 
L 313 1497 
L 313 2009 
z
" transform="scale(0.015625)"/>
      <path id="DejaVuSans-78" d="M 3513 3500 
L 2247 1797 
L 3578 0 
L 2900 0 
L 1881 1375 
L 863 0 
L 184 0 
L 1544 1831 
L 300 3500 
L 978 3500 
L 1906 2253 
L 2834 3500 
L 3513 3500 
z
" transform="scale(0.015625)"/>
     </defs>
     <use xlink:href="#DejaVuSans-67"/>
     <use xlink:href="#DejaVuSans-72" transform="translate(63.476562 0)"/>
     <use xlink:href="#DejaVuSans-65" transform="translate(102.339844 0)"/>
     <use xlink:href="#DejaVuSans-70" transform="translate(163.863281 0)"/>
     <use xlink:href="#DejaVuSans-20" transform="translate(227.339844 0)"/>
     <use xlink:href="#DejaVuSans-2d" transform="translate(259.126953 0)"/>
     <use xlink:href="#DejaVuSans-63" transform="translate(295.210938 0)"/>
     <use xlink:href="#DejaVuSans-20" transform="translate(350.191406 0)"/>
     <use xlink:href="#DejaVuSans-78" transform="translate(381.978516 0)"/>
    </g>
   </g>
   <g id="text_20">
    <!-- wc -l -->
    <g transform="translate(188.331562 133.463125) scale(0.14 -0.14)">
     <defs>
      <path id="DejaVuSans-77" d="M 269 3500 
L 844 3500 
L 1563 769 
L 2278 3500 
L 2956 3500 
L 3675 769 
L 4391 3500 
L 4966 3500 
L 4050 0 
L 3372 0 
L 2619 2869 
L 1863 0 
L 1184 0 
L 269 3500 
z
" transform="scale(0.015625)"/>
      <path id="DejaVuSans-6c" d="M 603 4863 
L 1178 4863 
L 1178 0 
L 603 0 
L 603 4863 
z
" transform="scale(0.015625)"/>
     </defs>
     <use xlink:href="#DejaVuSans-77"/>
     <use xlink:href="#DejaVuSans-63" transform="translate(81.787109 0)"/>
     <use xlink:href="#DejaVuSans-20" transform="translate(136.767578 0)"/>
     <use xlink:href="#DejaVuSans-2d" transform="translate(168.554688 0)"/>
     <use xlink:href="#DejaVuSans-6c" transform="translate(204.638672 0)"/>
    </g>
   </g>
   <g id="text_21">
    <!-- exec -->
    <g transform="translate(89.334844 313.463125) scale(0.14 -0.14)">
     <use xlink:href="#DejaVuSans-65"/>
     <use xlink:href="#DejaVuSans-78" transform="translate(59.773438 0)"/>
     <use xlink:href="#DejaVuSans-65" transform="translate(115.828125 0)"/>
     <use xlink:href="#DejaVuSans-63" transform="translate(177.351562 0)"/>
    </g>
   </g>
   <g id="text_22">
    <!-- exec -->
    <g transform="translate(221.334844 349.463125) scale(0.14 -0.14)">
     <use xlink:href="#DejaVuSans-65"/>
     <use xlink:href="#DejaVuSans-78" transform="translate(59.773438 0)"/>
     <use xlink:href="#DejaVuSans-65" transform="translate(115.828125 0)"/>
     <use xlink:href="#DejaVuSans-63" transform="translate(177.351562 0)"/>
    </g>
   </g>
   <g id="text_23">
    <!-- exec -->
    <g transform="translate(353.334844 385.463125) scale(0.14 -0.14)">
     <use xlink:href="#DejaVuSans-65"/>
     <use xlink:href="#DejaVuSans-78" transform="translate(59.773438 0)"/>
     <use xlink:href="#DejaVuSans-65" transform="translate(115.828125 0)"/>
     <use xlink:href="#DejaVuSans-63" transform="translate(177.351562 0)"/>
    </g>
   </g>
  </g>
 </g>
 <defs>
  <clipPath id="pd8dd0df649">
   <rect x="0" y="0" width="475.2" height="475.2"/>
  </clipPath>
 </defs>
</svg>
