<?xml version="1.0" encoding="utf-8" standalone="no"?>
<!DOCTYPE svg PUBLIC "-//W3C//DTD SVG 1.1//EN"
  "http://www.w3.org/Graphics/SVG/1.1/DTD/svg11.dtd">
<svg xmlns:xlink="http://www.w3.org/1999/xlink" width="432pt" height="432pt" viewBox="0 0 432 432" xmlns="http://www.w3.org/2000/svg" version="1.1">
 <metadata>
  <rdf:RDF xmlns:dc="http://purl.org/dc/elements/1.1/" xmlns:cc="http://creativecommons.org/ns#" xmlns:rdf="http://www.w3.org/1999/02/22-rdf-syntax-ns#">
   <cc:Work>
    <dc:type rdf:resource="http://purl.org/dc/dcmitype/StillImage"/>
    <dc:date>1970-01-01T00:00:00+00:00</dc:date>
    <dc:format>image/svg+xml</dc:format>
    <dc:creator>
     <cc:Agent>
      <dc:title>Matplotlib v3.10.7, https://matplotlib.org/</dc:title>
     </cc:Agent>
    </dc:creator>
   </cc:Work>
  </rdf:RDF>
 </metadata>
 <defs>
  <style type="text/css">*{stroke-linejoin: round; stroke-linecap: butt}</style>
 </defs>
 <g id="figure_1">
  <g id="patch_1">
   <path d="M 0 432 
L 432 432 
L 432 0 
L 0 0 
z
" style="fill: #ffffff"/>
  </g>
  <g id="axes_1">
   <g id="patch_2">
    <path d="M 36 396 
L 396 396 
L 396 36 
L 36 36 
z
" clip-path="url(#pd70b0b1a3f)" style="fill: #ffffff; stroke: #ffffff; stroke-linejoin: miter"/>
   </g>
   <g id="patch_3">
    <path d="M 357.428571 48 
Q 171 48 171 54 
" clip-path="url(#pd70b0b1a3f)" style="fill: none; stroke: #000000; stroke-linejoin: miter"/>
   </g>
   <g id="patch_4">
    <path d="M 357.428571 48 
Q 357.428571 48 357.428571 54 
" clip-path="url(#pd70b0b1a3f)" style="fill: none; stroke: #000000; stroke-linejoin: miter"/>
   </g>
   <g id="patch_5">
    <path d="M 357.428571 48 
Q 383.142857 48 383.142857 54 
" clip-path="url(#pd70b0b1a3f)" style="fill: none; stroke: #000000; stroke-linejoin: miter"/>
   </g>
   <g id="patch_6">
    <path d="M 357.428571 36 
Q 357.428571 42 357.428571 42 
" clip-path="url(#pd70b0b1a3f)" style="fill: none; stroke: #000000; stroke-linejoin: miter"/>
   </g>
   <g id="patch_7">
    <path d="M 357.428571 42 
Q 357.428571 48 357.428571 48 
" clip-path="url(#pd70b0b1a3f)" style="fill: none; stroke: #000000; stroke-linejoin: miter"/>
   </g>
   <g id="patch_8">
    <path d="M 171 54 
Q 171 114 171 114 
" clip-path="url(#pd70b0b1a3f)" style="fill: none; stroke: #000000; stroke-linejoin: miter"/>
   </g>
   <g id="patch_9">
    <path d="M 357.428571 54 
Q 357.428571 210 357.428571 210 
" clip-path="url(#pd70b0b1a3f)" style="fill: none; stroke: #000000; stroke-linejoin: miter"/>
   </g>
   <g id="patch_10">
    <path d="M 383.142857 54 
Q 383.142857 306 383.142857 306 
" clip-path="url(#pd70b0b1a3f)" style="fill: none; stroke: #000000; stroke-linejoin: miter"/>
   </g>
   <g id="patch_11">
    <path d="M 132.428571 66 
Q 113.142857 66 113.142857 66 
" clip-path="url(#pd70b0b1a3f)" style="fill: none; stroke: #000000; stroke-linejoin: miter"/>
   </g>
   <g id="patch_12">
    <path d="M 132.428571 66 
Q 151.714286 66 151.714286 66 
" clip-path="url(#pd70b0b1a3f)" style="fill: none; stroke: #000000; stroke-linejoin: miter"/>
   </g>
   <g id="patch_13">
    <path d="M 113.142857 66 
Q 113.142857 102 113.142857 102 
" clip-path="url(#pd70b0b1a3f)" style="fill: none; stroke: #000000; stroke-linejoin: miter"/>
   </g>
   <g id="patch_14">
    <path d="M 132.428571 66 
Q 132.428571 78 132.428571 78 
" clip-path="url(#pd70b0b1a3f)" style="fill: none; stroke: #000000; stroke-linejoin: miter"/>
   </g>
   <g id="patch_15">
    <path d="M 151.714286 66 
Q 151.714286 102 151.714286 102 
" clip-path="url(#pd70b0b1a3f)" style="fill: none; stroke: #000000; stroke-linejoin: miter"/>
   </g>
   <g id="patch_16">
    <path d="M 132.428571 90 
Q 132.428571 102 132.428571 102 
" clip-path="url(#pd70b0b1a3f)" style="fill: none; stroke: #000000; stroke-linejoin: miter"/>
   </g>
   <g id="patch_17">
    <path d="M 113.142857 102 
Q 113.142857 102 132.428571 102 
" clip-path="url(#pd70b0b1a3f)" style="fill: none; stroke: #000000; stroke-linejoin: miter"/>
   </g>
   <g id="patch_18">
    <path d="M 151.714286 102 
Q 151.714286 102 132.428571 102 
" clip-path="url(#pd70b0b1a3f)" style="fill: none; stroke: #000000; stroke-linejoin: miter"/>
   </g>
   <g id="patch_19">
    <path d="M 132.428571 102 
Q 132.428571 114 132.428571 114 
" clip-path="url(#pd70b0b1a3f)" style="fill: none; stroke: #000000; stroke-linejoin: miter"/>
   </g>
   <g id="patch_20">
    <path d="M 151.714286 126 
Q 151.714286 378 151.714286 378 
" clip-path="url(#pd70b0b1a3f)" style="fill: none; stroke: #000000; stroke-linejoin: miter"/>
   </g>
   <g id="patch_21">
    <path d="M 254.571429 150 
Q 254.571429 210 254.571429 210 
" clip-path="url(#pd70b0b1a3f)" style="fill: none; stroke: #000000; stroke-linejoin: miter"/>
   </g>
   <g id="patch_22">
    <path d="M 203.142857 162 
Q 171 162 171 162 
" clip-path="url(#pd70b0b1a3f)" style="fill: none; stroke: #000000; stroke-linejoin: miter"/>
   </g>
   <g id="patch_23">
    <path d="M 203.142857 162 
Q 235.285714 162 235.285714 162 
" clip-path="url(#pd70b0b1a3f)" style="fill: none; stroke: #000000; stroke-linejoin: miter"/>
   </g>
   <g id="patch_24">
    <path d="M 171 162 
Q 171 198 171 198 
" clip-path="url(#pd70b0b1a3f)" style="fill: none; stroke: #000000; stroke-linejoin: miter"/>
   </g>
   <g id="patch_25">
    <path d="M 190.285714 162 
Q 190.285714 174 190.285714 174 
" clip-path="url(#pd70b0b1a3f)" style="fill: none; stroke: #000000; stroke-linejoin: miter"/>
   </g>
   <g id="patch_26">
    <path d="M 216 162 
Q 216 174 216 174 
" clip-path="url(#pd70b0b1a3f)" style="fill: none; stroke: #000000; stroke-linejoin: miter"/>
   </g>
   <g id="patch_27">
    <path d="M 235.285714 162 
Q 235.285714 198 235.285714 198 
" clip-path="url(#pd70b0b1a3f)" style="fill: none; stroke: #000000; stroke-linejoin: miter"/>
   </g>
   <g id="patch_28">
    <path d="M 203.142857 186 
Q 203.142857 198 203.142857 198 
" clip-path="url(#pd70b0b1a3f)" style="fill: none; stroke: #000000; stroke-linejoin: miter"/>
   </g>
   <g id="patch_29">
    <path d="M 171 198 
Q 171 198 203.142857 198 
" clip-path="url(#pd70b0b1a3f)" style="fill: none; stroke: #000000; stroke-linejoin: miter"/>
   </g>
   <g id="patch_30">
    <path d="M 235.285714 198 
Q 235.285714 198 203.142857 198 
" clip-path="url(#pd70b0b1a3f)" style="fill: none; stroke: #000000; stroke-linejoin: miter"/>
   </g>
   <g id="patch_31">
    <path d="M 203.142857 198 
Q 203.142857 210 203.142857 210 
" clip-path="url(#pd70b0b1a3f)" style="fill: none; stroke: #000000; stroke-linejoin: miter"/>
   </g>
   <g id="patch_32">
    <path d="M 241.714286 222 
Q 241.714286 378 241.714286 378 
" clip-path="url(#pd70b0b1a3f)" style="fill: none; stroke: #000000; stroke-linejoin: miter"/>
   </g>
   <g id="patch_33">
    <path d="M 344.571429 246 
Q 344.571429 306 344.571429 306 
" clip-path="url(#pd70b0b1a3f)" style="fill: none; stroke: #000000; stroke-linejoin: miter"/>
   </g>
   <g id="patch_34">
    <path d="M 293.142857 258 
Q 261 258 261 258 
" clip-path="url(#pd70b0b1a3f)" style="fill: none; stroke: #000000; stroke-linejoin: miter"/>
   </g>
   <g id="patch_35">
    <path d="M 293.142857 258 
Q 325.285714 258 325.285714 258 
" clip-path="url(#pd70b0b1a3f)" style="fill: none; stroke: #000000; stroke-linejoin: miter"/>
   </g>
   <g id="patch_36">
    <path d="M 261 258 
Q 261 294 261 294 
" clip-path="url(#pd70b0b1a3f)" style="fill: none; stroke: #000000; stroke-linejoin: miter"/>
   </g>
   <g id="patch_37">
    <path d="M 280.285714 258 
Q 280.285714 270 280.285714 270 
" clip-path="url(#pd70b0b1a3f)" style="fill: none; stroke: #000000; stroke-linejoin: miter"/>
   </g>
   <g id="patch_38">
    <path d="M 306 258 
Q 306 270 306 270 
" clip-path="url(#pd70b0b1a3f)" style="fill: none; stroke: #000000; stroke-linejoin: miter"/>
   </g>
   <g id="patch_39">
    <path d="M 325.285714 258 
Q 325.285714 294 325.285714 294 
" clip-path="url(#pd70b0b1a3f)" style="fill: none; stroke: #000000; stroke-linejoin: miter"/>
   </g>
   <g id="patch_40">
    <path d="M 293.142857 282 
Q 293.142857 294 293.142857 294 
" clip-path="url(#pd70b0b1a3f)" style="fill: none; stroke: #000000; stroke-linejoin: miter"/>
   </g>
   <g id="patch_41">
    <path d="M 261 294 
Q 261 294 293.142857 294 
" clip-path="url(#pd70b0b1a3f)" style="fill: none; stroke: #000000; stroke-linejoin: miter"/>
   </g>
   <g id="patch_42">
    <path d="M 325.285714 294 
Q 325.285714 294 293.142857 294 
" clip-path="url(#pd70b0b1a3f)" style="fill: none; stroke: #000000; stroke-linejoin: miter"/>
   </g>
   <g id="patch_43">
    <path d="M 293.142857 294 
Q 293.142857 306 293.142857 306 
" clip-path="url(#pd70b0b1a3f)" style="fill: none; stroke: #000000; stroke-linejoin: miter"/>
   </g>
   <g id="patch_44">
    <path d="M 338.142857 318 
Q 338.142857 378 338.142857 378 
" clip-path="url(#pd70b0b1a3f)" style="fill: none; stroke: #000000; stroke-linejoin: miter"/>
   </g>
   <g id="patch_45">
    <path d="M 87.428571 330 
Q 42.428571 330 42.428571 330 
" clip-path="url(#pd70b0b1a3f)" style="fill: none; stroke: #000000; stroke-linejoin: miter"/>
   </g>
   <g id="patch_46">
    <path d="M 87.428571 330 
Q 132.428571 330 132.428571 330 
" clip-path="url(#pd70b0b1a3f)" style="fill: none; stroke: #000000; stroke-linejoin: miter"/>
   </g>
   <g id="patch_47">
    <path d="M 42.428571 330 
Q 42.428571 366 42.428571 366 
" clip-path="url(#pd70b0b1a3f)" style="fill: none; stroke: #000000; stroke-linejoin: miter"/>
   </g>
   <g id="patch_48">
    <path d="M 61.714286 330 
Q 61.714286 342 61.714286 342 
" clip-path="url(#pd70b0b1a3f)" style="fill: none; stroke: #000000; stroke-linejoin: miter"/>
   </g>
   <g id="patch_49">
    <path d="M 87.428571 330 
Q 87.428571 342 87.428571 342 
" clip-path="url(#pd70b0b1a3f)" style="fill: none; stroke: #000000; stroke-linejoin: miter"/>
   </g>
   <g id="patch_50">
    <path d="M 113.142857 330 
Q 113.142857 342 113.142857 342 
" clip-path="url(#pd70b0b1a3f)" style="fill: none; stroke: #000000; stroke-linejoin: miter"/>
   </g>
   <g id="patch_51">
    <path d="M 132.428571 330 
Q 132.428571 366 132.428571 366 
" clip-path="url(#pd70b0b1a3f)" style="fill: none; stroke: #000000; stroke-linejoin: miter"/>
   </g>
   <g id="patch_52">
    <path d="M 87.428571 354 
Q 87.428571 366 87.428571 366 
" clip-path="url(#pd70b0b1a3f)" style="fill: none; stroke: #000000; stroke-linejoin: miter"/>
   </g>
   <g id="patch_53">
    <path d="M 42.428571 366 
Q 42.428571 366 87.428571 366 
" clip-path="url(#pd70b0b1a3f)" style="fill: none; stroke: #000000; stroke-linejoin: miter"/>
   </g>
   <g id="patch_54">
    <path d="M 132.428571 366 
Q 132.428571 366 87.428571 366 
" clip-path="url(#pd70b0b1a3f)" style="fill: none; stroke: #000000; stroke-linejoin: miter"/>
   </g>
   <g id="patch_55">
    <path d="M 87.428571 366 
Q 87.428571 378 87.428571 378 
" clip-path="url(#pd70b0b1a3f)" style="fill: none; stroke: #000000; stroke-linejoin: miter"/>
   </g>
   <g id="patch_56">
    <path d="M 212.785714 390 
Q 212.785714 396 212.785714 396 
" clip-path="url(#pd70b0b1a3f)" style="fill: none; stroke: #000000; stroke-linejoin: miter"/>
   </g>
   <g id="patch_57">
    <path d="M 126 90 
L 126 78 
L 138.857143 78 
L 138.857143 90 
z
" clip-path="url(#pd70b0b1a3f)" style="fill: #ffffff; stroke: #000000; stroke-linejoin: miter"/>
   </g>
   <g id="patch_58">
    <path d="M 126 126 
L 126 114 
L 177.428571 114 
L 177.428571 126 
z
" clip-path="url(#pd70b0b1a3f)" style="fill: #ffffff; stroke: #000000; stroke-linejoin: miter"/>
   </g>
   <g id="patch_59">
    <path d="M 248.142857 150 
L 248.142857 138 
L 261 138 
L 261 150 
z
" clip-path="url(#pd70b0b1a3f)" style="fill: #ffffff; stroke: #000000; stroke-linejoin: miter"/>
   </g>
   <g id="patch_60">
    <path d="M 183.857143 186 
L 183.857143 174 
L 222.428571 174 
L 222.428571 186 
z
" clip-path="url(#pd70b0b1a3f)" style="fill: #ffffff; stroke: #000000; stroke-linejoin: miter"/>
   </g>
   <g id="patch_61">
    <path d="M 196.714286 222 
L 196.714286 210 
L 363.857143 210 
L 363.857143 222 
z
" clip-path="url(#pd70b0b1a3f)" style="fill: #ffffff; stroke: #000000; stroke-linejoin: miter"/>
   </g>
   <g id="patch_62">
    <path d="M 338.142857 246 
L 338.142857 234 
L 351 234 
L 351 246 
z
" clip-path="url(#pd70b0b1a3f)" style="fill: #ffffff; stroke: #000000; stroke-linejoin: miter"/>
   </g>
   <g id="patch_63">
    <path d="M 273.857143 282 
L 273.857143 270 
L 312.428571 270 
L 312.428571 282 
z
" clip-path="url(#pd70b0b1a3f)" style="fill: #ffffff; stroke: #000000; stroke-linejoin: miter"/>
   </g>
   <g id="patch_64">
    <path d="M 286.714286 318 
L 286.714286 306 
L 389.571429 306 
L 389.571429 318 
z
" clip-path="url(#pd70b0b1a3f)" style="fill: #ffffff; stroke: #000000; stroke-linejoin: miter"/>
   </g>
   <g id="patch_65">
    <path d="M 55.285714 354 
L 55.285714 342 
L 119.571429 342 
L 119.571429 354 
z
" clip-path="url(#pd70b0b1a3f)" style="fill: #ffffff; stroke: #000000; stroke-linejoin: miter"/>
   </g>
   <g id="patch_66">
    <path d="M 81 390 
L 81 378 
L 344.571429 378 
L 344.571429 390 
z
" clip-path="url(#pd70b0b1a3f)" style="fill: #ffffff; stroke: #000000; stroke-linejoin: miter"/>
   </g>
   <g id="PathCollection_1">
    <defs>
     <path id="m6547d9ecb8" d="M 0 4.398863 
C 1.166592 4.398863 2.285561 3.935371 3.110466 3.110466 
C 3.935371 2.285561 4.398863 1.166592 4.398863 0 
C 4.398863 -1.166592 3.935371 -2.285561 3.110466 -3.110466 
C 2.285561 -3.935371 1.166592 -4.398863 0 -4.398863 
C -1.166592 -4.398863 -2.285561 -3.935371 -3.110466 -3.110466 
C -3.935371 -2.285561 -4.398863 -1.166592 -4.398863 0 
C -4.398863 1.166592 -3.935371 2.285561 -3.110466 3.110466 
C -2.285561 3.935371 -1.166592 4.398863 0 4.398863 
z
" style="stroke: #000000"/>
    </defs>
    <g clip-path="url(#pd70b0b1a3f)">
     <use xlink:href="#m6547d9ecb8" x="357.428571" y="48" style="stroke: #000000"/>
    </g>
   </g>
   <g id="text_1">
    <!-- IO -->
    <g transform="translate(359.035714 46.618125) scale(0.12 -0.12)">
     <defs>
      <path id="DejaVuSans-49" d="M 628 4666 
L 1259 4666 
L 1259 0 
L 628 0 
L 628 4666 
z
" transform="scale(0.015625)"/>
      <path id="DejaVuSans-4f" d="M 2522 4238 
Q 1834 4238 1429 3725 
Q 1025 3213 1025 2328 
Q 1025 1447 1429 934 
Q 1834 422 2522 422 
Q 3209 422 3611 934 
Q 4013 1447 4013 2328 
Q 4013 3213 3611 3725 
Q 3209 4238 2522 4238 
z
M 2522 4750 
Q 3503 4750 4090 4092 
Q 4678 3434 4678 2328 
Q 4678 1225 4090 567 
Q 3503 -91 2522 -91 
Q 1538 -91 948 565 
Q 359 1222 359 2328 
Q 359 3434 948 4092 
Q 1538 4750 2522 4750 
z
" transform="scale(0.015625)"/>
     </defs>
     <use xlink:href="#DejaVuSans-49"/>
     <use xlink:href="#DejaVuSans-4f" transform="translate(29.492188 0)"/>
    </g>
   </g>
   <g id="text_2">
    <!-- IO -->
    <g transform="translate(172.607143 64.618125) scale(0.12 -0.12)">
     <use xlink:href="#DejaVuSans-49"/>
     <use xlink:href="#DejaVuSans-4f" transform="translate(29.492188 0)"/>
    </g>
   </g>
   <g id="text_3">
    <!-- IO -->
    <g transform="translate(359.035714 64.618125) scale(0.12 -0.12)">
     <use xlink:href="#DejaVuSans-49"/>
     <use xlink:href="#DejaVuSans-4f" transform="translate(29.492188 0)"/>
    </g>
   </g>
   <g id="text_4">
    <!-- IO -->
    <g transform="translate(384.75 64.618125) scale(0.12 -0.12)">
     <use xlink:href="#DejaVuSans-49"/>
     <use xlink:href="#DejaVuSans-4f" transform="translate(29.492188 0)"/>
    </g>
   </g>
   <g id="text_5">
    <!-- $\Lambda$ -->
    <g transform="translate(114.75 76.618125) scale(0.12 -0.12)">
     <defs>
      <path id="DejaVuSans-39b" d="M 716 0 
L 50 0 
L 1831 4666 
L 2547 4666 
L 4325 0 
L 3669 0 
L 2188 4044 
L 716 0 
z
" transform="scale(0.015625)"/>
     </defs>
     <use xlink:href="#DejaVuSans-39b" transform="translate(0 0.09375)"/>
    </g>
   </g>
   <g id="text_6">
    <!-- IO -->
    <g transform="translate(134.035714 76.618125) scale(0.12 -0.12)">
     <use xlink:href="#DejaVuSans-49"/>
     <use xlink:href="#DejaVuSans-4f" transform="translate(29.492188 0)"/>
    </g>
   </g>
   <g id="text_7">
    <!-- IO -->
    <g transform="translate(134.035714 100.618125) scale(0.12 -0.12)">
     <use xlink:href="#DejaVuSans-49"/>
     <use xlink:href="#DejaVuSans-4f" transform="translate(29.492188 0)"/>
    </g>
   </g>
   <g id="text_8">
    <!-- P -->
    <g transform="translate(134.035714 112.618125) scale(0.12 -0.12)">
     <defs>
      <path id="DejaVuSans-50" d="M 1259 4147 
L 1259 2394 
L 2053 2394 
Q 2494 2394 2734 2622 
Q 2975 2850 2975 3272 
Q 2975 3691 2734 3919 
Q 2494 4147 2053 4147 
L 1259 4147 
z
M 628 4666 
L 2053 4666 
Q 2838 4666 3239 4311 
Q 3641 3956 3641 3272 
Q 3641 2581 3239 2228 
Q 2838 1875 2053 1875 
L 1259 1875 
L 1259 0 
L 628 0 
L 628 4666 
z
" transform="scale(0.015625)"/>
     </defs>
     <use xlink:href="#DejaVuSans-50"/>
    </g>
   </g>
   <g id="text_9">
    <!-- IO -->
    <g transform="translate(153.321429 136.618125) scale(0.12 -0.12)">
     <use xlink:href="#DejaVuSans-49"/>
     <use xlink:href="#DejaVuSans-4f" transform="translate(29.492188 0)"/>
    </g>
   </g>
   <g id="text_10">
    <!-- IO -->
    <g transform="translate(256.178571 160.618125) scale(0.12 -0.12)">
     <use xlink:href="#DejaVuSans-49"/>
     <use xlink:href="#DejaVuSans-4f" transform="translate(29.492188 0)"/>
    </g>
   </g>
   <g id="text_11">
    <!-- $\Lambda$ -->
    <g transform="translate(172.607143 172.618125) scale(0.12 -0.12)">
     <use xlink:href="#DejaVuSans-39b" transform="translate(0 0.09375)"/>
    </g>
   </g>
   <g id="text_12">
    <!-- IO -->
    <g transform="translate(191.892857 172.618125) scale(0.12 -0.12)">
     <use xlink:href="#DejaVuSans-49"/>
     <use xlink:href="#DejaVuSans-4f" transform="translate(29.492188 0)"/>
    </g>
   </g>
   <g id="text_13">
    <!-- IO -->
    <g transform="translate(217.607143 172.618125) scale(0.12 -0.12)">
     <use xlink:href="#DejaVuSans-49"/>
     <use xlink:href="#DejaVuSans-4f" transform="translate(29.492188 0)"/>
    </g>
   </g>
   <g id="text_14">
    <!-- IO -->
    <g transform="translate(204.75 196.618125) scale(0.12 -0.12)">
     <use xlink:href="#DejaVuSans-49"/>
     <use xlink:href="#DejaVuSans-4f" transform="translate(29.492188 0)"/>
    </g>
   </g>
   <g id="text_15">
    <!-- P -->
    <g transform="translate(204.75 208.618125) scale(0.12 -0.12)">
     <use xlink:href="#DejaVuSans-50"/>
    </g>
   </g>
   <g id="text_16">
    <!-- IO -->
    <g transform="translate(243.321429 232.618125) scale(0.12 -0.12)">
     <use xlink:href="#DejaVuSans-49"/>
     <use xlink:href="#DejaVuSans-4f" transform="translate(29.492188 0)"/>
    </g>
   </g>
   <g id="text_17">
    <!-- IO -->
    <g transform="translate(346.178571 256.618125) scale(0.12 -0.12)">
     <use xlink:href="#DejaVuSans-49"/>
     <use xlink:href="#DejaVuSans-4f" transform="translate(29.492188 0)"/>
    </g>
   </g>
   <g id="text_18">
    <!-- $\Lambda$ -->
    <g transform="translate(262.607143 268.618125) scale(0.12 -0.12)">
     <use xlink:href="#DejaVuSans-39b" transform="translate(0 0.09375)"/>
    </g>
   </g>
   <g id="text_19">
    <!-- IO -->
    <g transform="translate(281.892857 268.618125) scale(0.12 -0.12)">
     <use xlink:href="#DejaVuSans-49"/>
     <use xlink:href="#DejaVuSans-4f" transform="translate(29.492188 0)"/>
    </g>
   </g>
   <g id="text_20">
    <!-- IO -->
    <g transform="translate(307.607143 268.618125) scale(0.12 -0.12)">
     <use xlink:href="#DejaVuSans-49"/>
     <use xlink:href="#DejaVuSans-4f" transform="translate(29.492188 0)"/>
    </g>
   </g>
   <g id="text_21">
    <!-- IO -->
    <g transform="translate(294.75 292.618125) scale(0.12 -0.12)">
     <use xlink:href="#DejaVuSans-49"/>
     <use xlink:href="#DejaVuSans-4f" transform="translate(29.492188 0)"/>
    </g>
   </g>
   <g id="text_22">
    <!-- P -->
    <g transform="translate(294.75 304.618125) scale(0.12 -0.12)">
     <use xlink:href="#DejaVuSans-50"/>
    </g>
   </g>
   <g id="text_23">
    <!-- IO -->
    <g transform="translate(339.75 328.618125) scale(0.12 -0.12)">
     <use xlink:href="#DejaVuSans-49"/>
     <use xlink:href="#DejaVuSans-4f" transform="translate(29.492188 0)"/>
    </g>
   </g>
   <g id="text_24">
    <!-- $\Lambda$ -->
    <g transform="translate(44.035714 340.618125) scale(0.12 -0.12)">
     <use xlink:href="#DejaVuSans-39b" transform="translate(0 0.09375)"/>
    </g>
   </g>
   <g id="text_25">
    <!-- IO -->
    <g transform="translate(63.321429 340.618125) scale(0.12 -0.12)">
     <use xlink:href="#DejaVuSans-49"/>
     <use xlink:href="#DejaVuSans-4f" transform="translate(29.492188 0)"/>
    </g>
   </g>
   <g id="text_26">
    <!-- IO -->
    <g transform="translate(89.035714 340.618125) scale(0.12 -0.12)">
     <use xlink:href="#DejaVuSans-49"/>
     <use xlink:href="#DejaVuSans-4f" transform="translate(29.492188 0)"/>
    </g>
   </g>
   <g id="text_27">
    <!-- IO -->
    <g transform="translate(114.75 340.618125) scale(0.12 -0.12)">
     <use xlink:href="#DejaVuSans-49"/>
     <use xlink:href="#DejaVuSans-4f" transform="translate(29.492188 0)"/>
    </g>
   </g>
   <g id="text_28">
    <!-- IO -->
    <g transform="translate(89.035714 364.618125) scale(0.12 -0.12)">
     <use xlink:href="#DejaVuSans-49"/>
     <use xlink:href="#DejaVuSans-4f" transform="translate(29.492188 0)"/>
    </g>
   </g>
   <g id="text_29">
    <!-- P -->
    <g transform="translate(89.035714 376.618125) scale(0.12 -0.12)">
     <use xlink:href="#DejaVuSans-50"/>
    </g>
   </g>
   <g id="text_30">
    <!-- IO -->
    <g transform="translate(214.392857 400.618125) scale(0.12 -0.12)">
     <use xlink:href="#DejaVuSans-49"/>
     <use xlink:href="#DejaVuSans-4f" transform="translate(29.492188 0)"/>
    </g>
   </g>
   <g id="text_31">
    <!-- cat -->
    <g transform="translate(121.545759 87.863125) scale(0.14 -0.14)">
     <defs>
      <path id="DejaVuSans-63" d="M 3122 3366 
L 3122 2828 
Q 2878 2963 2633 3030 
Q 2388 3097 2138 3097 
Q 1578 3097 1268 2742 
Q 959 2388 959 1747 
Q 959 1106 1268 751 
Q 1578 397 2138 397 
Q 2388 397 2633 464 
Q 2878 531 3122 666 
L 3122 134 
Q 2881 22 2623 -34 
Q 2366 -91 2075 -91 
Q 1284 -91 818 406 
Q 353 903 353 1747 
Q 353 2603 823 3093 
Q 1294 3584 2113 3584 
Q 2378 3584 2631 3529 
Q 2884 3475 3122 3366 
z
" transform="scale(0.015625)"/>
      <path id="DejaVuSans-61" d="M 2194 1759 
Q 1497 1759 1228 1600 
Q 959 1441 959 1056 
Q 959 750 1161 570 
Q 1363 391 1709 391 
Q 2188 391 2477 730 
Q 2766 1069 2766 1631 
L 2766 1759 
L 2194 1759 
z
M 3341 1997 
L 3341 0 
L 2766 0 
L 2766 531 
Q 2569 213 2275 61 
Q 1981 -91 1556 -91 
Q 1019 -91 701 211 
Q 384 513 384 1019 
Q 384 1609 779 1909 
Q 1175 2209 1959 2209 
L 2766 2209 
L 2766 2266 
Q 2766 2663 2505 2880 
Q 2244 3097 1772 3097 
Q 1472 3097 1187 3025 
Q 903 2953 641 2809 
L 641 3341 
Q 956 3463 1253 3523 
Q 1550 3584 1831 3584 
Q 2591 3584 2966 3190 
Q 3341 2797 3341 1997 
z
" transform="scale(0.015625)"/>
      <path id="DejaVuSans-74" d="M 1172 4494 
L 1172 3500 
L 2356 3500 
L 2356 3053 
L 1172 3053 
L 1172 1153 
Q 1172 725 1289 603 
Q 1406 481 1766 481 
L 2356 481 
L 2356 0 
L 1766 0 
Q 1100 0 847 248 
Q 594 497 594 1153 
L 594 3053 
L 172 3053 
L 172 3500 
L 594 3500 
L 594 4494 
L 1172 4494 
z
" transform="scale(0.015625)"/>
     </defs>
     <use xlink:href="#DejaVuSans-63"/>
     <use xlink:href="#DejaVuSans-61" transform="translate(54.980469 0)"/>
     <use xlink:href="#DejaVuSans-74" transform="translate(116.259766 0)"/>
    </g>
   </g>
   <g id="text_32">
    <!-- eval -->
    <g transform="translate(137.029598 123.863125) scale(0.14 -0.14)">
     <defs>
      <path id="DejaVuSans-65" d="M 3597 1894 
L 3597 1613 
L 953 1613 
Q 991 1019 1311 708 
Q 1631 397 2203 397 
Q 2534 397 2845 478 
Q 3156 559 3463 722 
L 3463 178 
Q 3153 47 2828 -22 
Q 2503 -91 2169 -91 
Q 1331 -91 842 396 
Q 353 884 353 1716 
Q 353 2575 817 3079 
Q 1281 3584 2069 3584 
Q 2775 3584 3186 3129 
Q 3597 2675 3597 1894 
z
M 3022 2063 
Q 3016 2534 2758 2815 
Q 2500 3097 2075 3097 
Q 1594 3097 1305 2825 
Q 1016 2553 972 2059 
L 3022 2063 
z
" transform="scale(0.015625)"/>
      <path id="DejaVuSans-76" d="M 191 3500 
L 800 3500 
L 1894 563 
L 2988 3500 
L 3597 3500 
L 2284 0 
L 1503 0 
L 191 3500 
z
" transform="scale(0.015625)"/>
      <path id="DejaVuSans-6c" d="M 603 4863 
L 1178 4863 
L 1178 0 
L 603 0 
L 603 4863 
z
" transform="scale(0.015625)"/>
     </defs>
     <use xlink:href="#DejaVuSans-65"/>
     <use xlink:href="#DejaVuSans-76" transform="translate(61.523438 0)"/>
     <use xlink:href="#DejaVuSans-61" transform="translate(120.703125 0)"/>
     <use xlink:href="#DejaVuSans-6c" transform="translate(181.982422 0)"/>
    </g>
   </g>
   <g id="text_33">
    <!-- -c x -->
    <g transform="translate(241.829241 147.863125) scale(0.14 -0.14)">
     <defs>
      <path id="DejaVuSans-2d" d="M 313 2009 
L 1997 2009 
L 1997 1497 
L 313 1497 
L 313 2009 
z
" transform="scale(0.015625)"/>
      <path id="DejaVuSans-20" transform="scale(0.015625)"/>
      <path id="DejaVuSans-78" d="M 3513 3500 
L 2247 1797 
L 3578 0 
L 2900 0 
L 1881 1375 
L 863 0 
L 184 0 
L 1544 1831 
L 300 3500 
L 978 3500 
L 1906 2253 
L 2834 3500 
L 3513 3500 
z
" transform="scale(0.015625)"/>
     </defs>
     <use xlink:href="#DejaVuSans-2d"/>
     <use xlink:href="#DejaVuSans-63" transform="translate(36.083984 0)"/>
     <use xlink:href="#DejaVuSans-20" transform="translate(91.064453 0)"/>
     <use xlink:href="#DejaVuSans-78" transform="translate(122.851562 0)"/>
    </g>
   </g>
   <g id="text_34">
    <!-- grep -->
    <g transform="translate(187.227701 183.863125) scale(0.14 -0.14)">
     <defs>
      <path id="DejaVuSans-67" d="M 2906 1791 
Q 2906 2416 2648 2759 
Q 2391 3103 1925 3103 
Q 1463 3103 1205 2759 
Q 947 2416 947 1791 
Q 947 1169 1205 825 
Q 1463 481 1925 481 
Q 2391 481 2648 825 
Q 2906 1169 2906 1791 
z
M 3481 434 
Q 3481 -459 3084 -895 
Q 2688 -1331 1869 -1331 
Q 1566 -1331 1297 -1286 
Q 1028 -1241 775 -1147 
L 775 -588 
Q 1028 -725 1275 -790 
Q 1522 -856 1778 -856 
Q 2344 -856 2625 -561 
Q 2906 -266 2906 331 
L 2906 616 
Q 2728 306 2450 153 
Q 2172 0 1784 0 
Q 1141 0 747 490 
Q 353 981 353 1791 
Q 353 2603 747 3093 
Q 1141 3584 1784 3584 
Q 2172 3584 2450 3431 
Q 2728 3278 2906 2969 
L 2906 3500 
L 3481 3500 
L 3481 434 
z
" transform="scale(0.015625)"/>
      <path id="DejaVuSans-72" d="M 2631 2963 
Q 2534 3019 2420 3045 
Q 2306 3072 2169 3072 
Q 1681 3072 1420 2755 
Q 1159 2438 1159 1844 
L 1159 0 
L 581 0 
L 581 3500 
L 1159 3500 
L 1159 2956 
Q 1341 3275 1631 3429 
Q 1922 3584 2338 3584 
Q 2397 3584 2469 3576 
Q 2541 3569 2628 3553 
L 2631 2963 
z
" transform="scale(0.015625)"/>
      <path id="DejaVuSans-70" d="M 1159 525 
L 1159 -1331 
L 581 -1331 
L 581 3500 
L 1159 3500 
L 1159 2969 
Q 1341 3281 1617 3432 
Q 1894 3584 2278 3584 
Q 2916 3584 3314 3078 
Q 3713 2572 3713 1747 
Q 3713 922 3314 415 
Q 2916 -91 2278 -91 
Q 1894 -91 1617 61 
Q 1341 213 1159 525 
z
M 3116 1747 
Q 3116 2381 2855 2742 
Q 2594 3103 2138 3103 
Q 1681 3103 1420 2742 
Q 1159 2381 1159 1747 
Q 1159 1113 1420 752 
Q 1681 391 2138 391 
Q 2594 391 2855 752 
Q 3116 1113 3116 1747 
z
" transform="scale(0.015625)"/>
     </defs>
     <use xlink:href="#DejaVuSans-67"/>
     <use xlink:href="#DejaVuSans-72" transform="translate(63.476562 0)"/>
     <use xlink:href="#DejaVuSans-65" transform="translate(102.339844 0)"/>
     <use xlink:href="#DejaVuSans-70" transform="translate(163.863281 0)"/>
    </g>
   </g>
   <g id="text_35">
    <!-- eval -->
    <g transform="translate(265.601027 219.863125) scale(0.14 -0.14)">
     <use xlink:href="#DejaVuSans-65"/>
     <use xlink:href="#DejaVuSans-76" transform="translate(61.523438 0)"/>
     <use xlink:href="#DejaVuSans-61" transform="translate(120.703125 0)"/>
     <use xlink:href="#DejaVuSans-6c" transform="translate(181.982422 0)"/>
    </g>
   </g>
   <g id="text_36">
    <!-- -l -->
    <g transform="translate(340.101272 243.863125) scale(0.14 -0.14)">
     <use xlink:href="#DejaVuSans-2d"/>
     <use xlink:href="#DejaVuSans-6c" transform="translate(36.083984 0)"/>
    </g>
   </g>
   <g id="text_37">
    <!-- wc -->
    <g transform="translate(283.569263 279.863125) scale(0.14 -0.14)">
     <defs>
      <path id="DejaVuSans-77" d="M 269 3500 
L 844 3500 
L 1563 769 
L 2278 3500 
L 2956 3500 
L 3675 769 
L 4391 3500 
L 4966 3500 
L 4050 0 
L 3372 0 
L 2619 2869 
L 1863 0 
L 1184 0 
L 269 3500 
z
" transform="scale(0.015625)"/>
     </defs>
     <use xlink:href="#DejaVuSans-77"/>
     <use xlink:href="#DejaVuSans-63" transform="translate(81.787109 0)"/>
    </g>
   </g>
   <g id="text_38">
    <!-- eval -->
    <g transform="translate(323.45817 315.863125) scale(0.14 -0.14)">
     <use xlink:href="#DejaVuSans-65"/>
     <use xlink:href="#DejaVuSans-76" transform="translate(61.523438 0)"/>
     <use xlink:href="#DejaVuSans-61" transform="translate(120.703125 0)"/>
     <use xlink:href="#DejaVuSans-6c" transform="translate(181.982422 0)"/>
    </g>
   </g>
   <g id="text_39">
    <!-- cat -->
    <g transform="translate(76.545759 351.863125) scale(0.14 -0.14)">
     <use xlink:href="#DejaVuSans-63"/>
     <use xlink:href="#DejaVuSans-61" transform="translate(54.980469 0)"/>
     <use xlink:href="#DejaVuSans-74" transform="translate(116.259766 0)"/>
    </g>
   </g>
   <g id="text_40">
    <!-- eval -->
    <g transform="translate(198.101027 387.863125) scale(0.14 -0.14)">
     <use xlink:href="#DejaVuSans-65"/>
     <use xlink:href="#DejaVuSans-76" transform="translate(61.523438 0)"/>
     <use xlink:href="#DejaVuSans-61" transform="translate(120.703125 0)"/>
     <use xlink:href="#DejaVuSans-6c" transform="translate(181.982422 0)"/>
    </g>
   </g>
  </g>
 </g>
 <defs>
  <clipPath id="pd70b0b1a3f">
   <rect x="0" y="0" width="432" height="432"/>
  </clipPath>
 </defs>
</svg>
